<svg xmlns="http://www.w3.org/2000/svg" viewBox="0 0 32 32">
  <defs>
    <linearGradient id="lockGrad" x1="0%" y1="0%" x2="100%" y2="100%">
      <stop offset="0%" style="stop-color:#3b82f6"/>
      <stop offset="100%" style="stop-color:#1d4ed8"/>
    </linearGradient>
  </defs>
  <rect width="32" height="32" rx="6" fill="url(#lockGrad)"/>
  <path d="M16 8a5 5 0 0 0-5 5v2h-1a1 1 0 0 0-1 1v8a1 1 0 0 0 1 1h12a1 1 0 0 0 1-1v-8a1 1 0 0 0-1-1h-1v-2a5 5 0 0 0-5-5zm0 2a3 3 0 0 1 3 3v2h-6v-2a3 3 0 0 1 3-3zm0 8a2 2 0 1 1 0 4 2 2 0 0 1 0-4z" fill="white"/>
</svg>
