<svg xmlns="http://www.w3.org/2000/svg" viewBox="0 0 192 192" width="192" height="192">
  <defs>
    <linearGradient id="bg" x1="0%" y1="0%" x2="100%" y2="100%">
      <stop offset="0%" style="stop-color:#3b82f6"/>
      <stop offset="100%" style="stop-color:#1d4ed8"/>
    </linearGradient>
  </defs>
  <rect width="192" height="192" rx="36" fill="url(#bg)"/>
  <path d="M96 40a30 30 0 0 0-30 30v14H58a6 6 0 0 0-6 6v56a6 6 0 0 0 6 6h76a6 6 0 0 0 6-6V90a6 6 0 0 0-6-6h-8V70a30 30 0 0 0-30-30zm0 14a16 16 0 0 1 16 16v14H80V70a16 16 0 0 1 16-16zm0 50a10 10 0 1 1 0 20 10 10 0 0 1 0-20z" fill="white"/>
</svg>
